<svg width="94" height="26" viewBox="0 0 94 26" fill="none" xmlns="http://www.w3.org/2000/svg">
<path d="M90.517 26.0005H3.48341C1.56863 26.0005 0.00201416 24.538 0.00201416 22.7505V3.25049C0.00201416 1.46298 1.56863 0.000488281 3.48341 0.000488281H90.517C92.4317 0.000488281 93.9984 1.46298 93.9984 3.25049V22.7505C93.9984 24.538 92.4317 26.0005 90.517 26.0005Z" fill="#100F0D"/>
<path d="M90.517 0.000488281H3.48341C1.56863 0.000488281 0.00201416 1.46298 0.00201416 3.25049V22.7505C0.00201416 24.538 1.56863 26.0005 3.48341 26.0005H90.517C92.4317 26.0005 93.9984 24.538 93.9984 22.7505V3.25049C93.9984 1.46298 92.4317 0.000488281 90.517 0.000488281ZM90.517 0.520225C92.1295 0.520225 93.4414 1.7451 93.4414 3.25049V22.7505C93.4414 24.2559 92.1296 25.4808 90.517 25.4808H3.48341C1.87084 25.4808 0.55933 24.2559 0.55933 22.7505V3.25049C0.55933 1.7451 1.87084 0.520225 3.48341 0.520225H90.517Z" fill="#A2A2A1"/>
<path d="M74.4585 19.8888H75.7577V11.1839H74.4585V19.8888ZM86.1609 14.3198L84.6716 18.0936H84.6271L83.0814 14.3198H81.6818L84.0005 19.5943L82.6783 22.5284H84.0332L87.6058 14.3201L86.1609 14.3198ZM78.7924 18.9C78.3677 18.9 77.7737 18.687 77.7737 18.1608C77.7737 17.4889 78.5132 17.2314 79.151 17.2314C79.722 17.2314 79.9914 17.3543 80.3382 17.5224C80.2372 18.3288 79.543 18.9 78.7924 18.9ZM78.9498 14.1294C78.0091 14.1294 77.035 14.5439 76.6318 15.4622L77.7849 15.9436C78.0314 15.4622 78.4902 15.3055 78.972 15.3055C79.6439 15.3055 80.327 15.7083 80.3381 16.4253V16.5148C80.1028 16.3804 79.5987 16.1789 78.9832 16.1789C77.7396 16.1789 76.4745 16.8618 76.4745 18.1385C76.4745 19.3031 77.4938 20.0535 78.6357 20.0535C79.5089 20.0535 79.9914 19.6616 80.2929 19.2022H80.3381V19.8745H81.5928V16.537C81.5928 14.9916 80.4384 14.1294 78.9498 14.1294ZM70.9201 15.3795H69.0721V12.3959H70.9201C71.8914 12.3959 72.4428 13.1999 72.4428 13.8876C72.4428 14.5622 71.8913 15.3795 70.9201 15.3795ZM70.8866 11.1841H67.7735V19.889H69.0722V16.5912H70.8867C72.3266 16.5912 73.7422 15.549 73.7422 13.888C73.7422 12.2272 72.3266 11.1841 70.8866 11.1841ZM53.9108 18.9015C53.0132 18.9015 52.262 18.1497 52.262 17.1181C52.262 16.0745 53.0132 15.3121 53.9108 15.3121C54.7969 15.3121 55.4924 16.0745 55.4924 17.1181C55.4924 18.1497 54.7969 18.9015 53.9108 18.9015ZM55.4026 14.8071H55.3577C55.0662 14.4595 54.505 14.1454 53.7987 14.1454C52.3177 14.1454 50.9605 15.4468 50.9605 17.1181C50.9605 18.778 52.3177 20.068 53.7987 20.068C54.505 20.068 55.0661 19.7539 55.3577 19.3952H55.4026V19.8211C55.4026 20.9544 54.7969 21.5599 53.821 21.5599C53.0249 21.5599 52.5313 20.9879 52.3292 20.5056L51.1964 20.9767C51.5214 21.7616 52.3849 22.7266 53.821 22.7266C55.3469 22.7266 56.6369 21.829 56.6369 19.6415V14.3248H55.4027L55.4026 14.8071ZM57.5344 19.8885H58.8351V11.1836H57.5344V19.8885ZM60.7534 17.017C60.7199 15.8727 61.64 15.2895 62.3015 15.2895C62.8177 15.2895 63.2548 15.5477 63.4012 15.9176L60.7534 17.017ZM64.7915 16.0296C64.5448 15.3682 63.7934 14.1454 62.2566 14.1454C60.7308 14.1454 59.4633 15.3456 59.4633 17.1067C59.4633 18.7669 60.7199 20.0681 62.4022 20.0681C63.7594 20.0681 64.5449 19.2383 64.8704 18.7557L63.8608 18.0826C63.5241 18.5763 63.0644 18.9015 62.4022 18.9015C61.7407 18.9015 61.2693 18.5986 60.9669 18.0041L64.9262 16.3664L64.7915 16.0296ZM33.2446 15.054V16.3103H36.2508C36.161 17.017 35.9255 17.5329 35.5665 17.8919C35.1288 18.3293 34.4446 18.8118 33.2446 18.8118C31.3936 18.8118 29.9467 17.3199 29.9467 15.4691C29.9467 13.6182 31.3936 12.1262 33.2446 12.1262C34.2429 12.1262 34.9719 12.5189 35.5104 13.0237L36.3968 12.1373C35.645 11.4195 34.6468 10.8699 33.2446 10.8699C30.7091 10.8699 28.5778 12.9339 28.5778 15.4691C28.5778 18.004 30.7091 20.0681 33.2446 20.0681C34.6129 20.0681 35.6451 19.6193 36.4526 18.7781C37.2827 17.948 37.5408 16.7814 37.5408 15.839C37.5408 15.5477 37.5181 15.2785 37.4733 15.054H33.2446ZM40.9589 18.9015C40.0613 18.9015 39.2872 18.1611 39.2872 17.1067C39.2872 16.0411 40.0613 15.3122 40.9589 15.3122C41.8561 15.3122 42.6301 16.0411 42.6301 17.1067C42.6301 18.1611 41.8561 18.9015 40.9589 18.9015ZM40.9589 14.1454C39.3207 14.1454 37.986 15.3904 37.986 17.1067C37.986 18.8118 39.3207 20.0681 40.9589 20.0681C42.5965 20.0681 43.9314 18.8118 43.9314 17.1067C43.9314 15.3904 42.5965 14.1454 40.9589 14.1454ZM47.4433 18.9015C46.5463 18.9015 45.772 18.1611 45.772 17.1067C45.772 16.0411 46.5464 15.3122 47.4433 15.3122C48.3409 15.3122 49.1147 16.0411 49.1147 17.1067C49.1147 18.1611 48.3409 18.9015 47.4433 18.9015ZM47.4433 14.1454C45.8057 14.1454 44.4711 15.3904 44.4711 17.1067C44.4711 18.8118 45.8057 20.0681 47.4433 20.0681C49.0815 20.0681 50.4162 18.8118 50.4162 17.1067C50.4162 15.3904 49.0815 14.1454 47.4433 14.1454Z" fill="white"/>
<path d="M14.4248 12.525L7.01239 20.3928C7.01267 20.3944 7.01323 20.3958 7.01349 20.3974C7.24082 21.2518 8.02117 21.8809 8.94728 21.8809C9.31749 21.8809 9.66507 21.7808 9.96315 21.6051L9.98683 21.5912L18.3309 16.7763L14.4248 12.525Z" fill="#EB3131"/>
<path d="M21.9245 11.1855L21.9174 11.1807L18.315 9.09229L14.2564 12.7038L18.3291 16.7759L21.9124 14.7083C22.5407 14.3692 22.9672 13.7068 22.9672 12.9431C22.9672 12.1848 22.5465 11.5258 21.9245 11.1855Z" fill="#F6B60B"/>
<path d="M7.01134 5.45996C6.96678 5.62428 6.94336 5.7964 6.94336 5.97514V19.8783C6.94336 20.0567 6.9665 20.2294 7.01162 20.3931L14.6799 12.7264L7.01134 5.45996Z" fill="#5778C5"/>
<path d="M14.4796 12.9267L18.3166 9.09092L9.98189 4.25858C9.67894 4.07713 9.32536 3.97241 8.94701 3.97241C8.0209 3.97241 7.2395 4.60263 7.01212 5.45798C7.01184 5.45881 7.01184 5.45939 7.01184 5.46012L14.4796 12.9267Z" fill="#3BAD49"/>
<path d="M33.0008 5.81065H30.9696V6.31329H32.4917C32.4503 6.72347 32.2871 7.0455 32.0118 7.2794C31.7366 7.51335 31.3852 7.63082 30.9696 7.63082C30.5137 7.63082 30.1275 7.47199 29.811 7.15651C29.5009 6.83449 29.3432 6.43626 29.3432 5.9565C29.3432 5.47676 29.5009 5.07854 29.811 4.75654C30.1275 4.44105 30.5137 4.28328 30.9696 4.28328C31.2035 4.28328 31.4266 4.32353 31.631 4.41167C31.8356 4.49975 31.9999 4.62271 32.1283 4.78049L32.5145 4.39427C32.3393 4.19513 32.1174 4.04285 31.8421 3.93187C31.5668 3.82088 31.2796 3.76761 30.9695 3.76761C30.3614 3.76761 29.8458 3.97866 29.4247 4.39971C29.0037 4.8218 28.7926 5.34185 28.7926 5.95651C28.7926 6.57116 29.0036 7.09234 29.4247 7.51341C29.8457 7.93438 30.3614 8.14551 30.9695 8.14551C31.6082 8.14551 32.1173 7.94094 32.509 7.52532C32.8539 7.17941 33.0301 6.71159 33.0301 6.12628C33.0301 6.02727 33.0182 5.92164 33.0008 5.81065ZM33.7877 3.86109V8.05187H36.2344V7.53725H34.3262V6.20783H36.0473V5.70518H34.3262V4.37681H36.2344V3.86107L33.7877 3.86109ZM39.6653 4.37682V3.86109H36.7855V4.37682H37.9561V8.05186H38.4947V4.37682H39.6653ZM42.2725 3.86109H41.7339V8.05187H42.2725V3.86109ZM45.827 4.37682V3.86109H42.9473V4.37682H44.1178V8.05186H44.6563V4.37682H45.827ZM51.2613 4.4062C50.8456 3.97862 50.3365 3.76758 49.7283 3.76758C49.1191 3.76758 48.61 3.97862 48.1944 4.39968C47.7787 4.81529 47.5743 5.33639 47.5743 5.95647C47.5743 6.57656 47.7788 7.09774 48.1944 7.51337C48.61 7.93434 49.1191 8.14547 49.7283 8.14547C50.331 8.14547 50.8456 7.93436 51.2613 7.51337C51.6769 7.09776 51.8813 6.57661 51.8813 5.95647C51.8813 5.34182 51.6768 4.82174 51.2613 4.4062ZM48.5806 4.7565C48.8906 4.44102 49.2714 4.28324 49.7283 4.28324C50.1842 4.28324 50.565 4.44102 50.8696 4.7565C51.1796 5.06655 51.3319 5.47121 51.3319 5.95646C51.3319 6.44281 51.1796 6.84638 50.8696 7.15648C50.565 7.47196 50.1842 7.63078 49.7283 7.63078C49.2714 7.63078 48.8906 7.47196 48.5806 7.15648C48.277 6.83988 48.1247 6.44281 48.1247 5.95646C48.1247 5.47122 48.277 5.07307 48.5806 4.7565ZM53.1608 5.44192L53.138 4.63352H53.1608L55.291 8.05183H55.8534V3.86105H55.3149V6.31324L55.3377 7.12164H55.3149L53.2783 3.86105H52.6223V8.05183H53.1608V5.44192Z" fill="white" stroke="white" stroke-width="0.139256" stroke-miterlimit="10"/>
</svg>
