<svg width="94" height="26" viewBox="0 0 94 26" fill="none" xmlns="http://www.w3.org/2000/svg">
<g clip-path="url(#clip0_82_4)">
<path d="M90 0H4C1.79086 0 0 1.79086 0 4V22C0 24.2091 1.79086 26 4 26H90C92.2091 26 94 24.2091 94 22V4C94 1.79086 92.2091 0 90 0Z" fill="black"/>
<path d="M90.517 0.000488281H3.48341C1.56863 0.000488281 0.00201416 1.46298 0.00201416 3.25049V22.7505C0.00201416 24.538 1.56863 26.0005 3.48341 26.0005H90.517C92.4317 26.0005 93.9984 24.538 93.9984 22.7505V3.25049C93.9984 1.46298 92.4317 0.000488281 90.517 0.000488281ZM90.517 0.520225C92.1295 0.520225 93.4414 1.7451 93.4414 3.25049V22.7505C93.4414 24.2559 92.1296 25.4808 90.517 25.4808H3.48341C1.87084 25.4808 0.55933 24.2559 0.55933 22.7505V3.25049C0.55933 1.7451 1.87084 0.520225 3.48341 0.520225H90.517Z" fill="#A2A2A1"/>
<path d="M18.3563 3.94897H9.70721V12.5981H18.3563V3.94897Z" fill="#F25022"/>
<path d="M27.9034 3.94897H19.2543V12.5981H27.9034V3.94897Z" fill="#7FBA00"/>
<path d="M18.3563 13.4856H9.70721V22.1347H18.3563V13.4856Z" fill="#00A4EF"/>
<path d="M27.9034 13.4856H19.2543V22.1347H27.9034V13.4856Z" fill="#FFB900"/>
<path d="M44.572 13.6924C44.572 13.4343 44.6649 13.2279 44.8507 13.0525C45.0365 12.877 45.2532 12.7944 45.5112 12.7944C45.7796 12.7944 46.0067 12.8873 46.1821 13.0628C46.3576 13.2382 46.4505 13.455 46.4505 13.6924C46.4505 13.9401 46.3576 14.1568 46.1718 14.322C45.986 14.4974 45.7693 14.58 45.5009 14.58C45.2326 14.58 45.0158 14.4974 44.8301 14.322C44.6649 14.1465 44.572 13.9401 44.572 13.6924ZM46.275 22.1351H44.7372V15.5811H46.275V22.1351Z" fill="white"/>
<path d="M50.9608 21.0098C51.1879 21.0098 51.4459 20.9582 51.7246 20.8549C52.0032 20.7517 52.2509 20.6072 52.4883 20.4318V21.8664C52.2406 22.0109 51.9619 22.1141 51.6523 22.1864C51.3427 22.2586 50.9917 22.2999 50.6202 22.2999C49.6603 22.2999 48.8759 21.9903 48.267 21.3813C47.658 20.7724 47.3587 19.988 47.3587 19.0487C47.3587 17.996 47.6683 17.129 48.2876 16.4478C48.9069 15.7666 49.7739 15.426 50.9092 15.426C51.1982 15.426 51.4872 15.4673 51.7865 15.5396C52.0858 15.6118 52.3129 15.7047 52.4883 15.7976V17.2735C52.2509 17.0981 52.0032 16.9639 51.7555 16.871C51.5078 16.7781 51.2498 16.7265 50.9917 16.7265C50.3828 16.7265 49.8977 16.9226 49.5158 17.3148C49.1443 17.707 48.9585 18.2437 48.9585 18.9146C48.9585 19.5751 49.1339 20.0912 49.4952 20.4627C49.8564 20.8343 50.3415 21.0098 50.9608 21.0098Z" fill="white"/>
<path d="M56.8749 15.4778C56.9987 15.4778 57.1123 15.4881 57.2051 15.4984C57.298 15.5191 57.3909 15.5397 57.4528 15.5604V17.1188C57.3703 17.0569 57.2567 17.0053 57.1019 16.9537C56.9471 16.9021 56.7613 16.8711 56.5343 16.8711C56.1524 16.8711 55.8324 17.026 55.5744 17.3459C55.3164 17.6659 55.1822 18.151 55.1822 18.8218V22.1349H53.6443V15.581H55.1822V16.6131H55.2028C55.3473 16.2519 55.5538 15.9732 55.8428 15.7771C56.1317 15.581 56.4723 15.4778 56.8749 15.4778Z" fill="white"/>
<path d="M57.5354 18.9559C57.5354 17.8721 57.845 17.0155 58.454 16.3756C59.0629 15.746 59.9196 15.426 61.0033 15.426C62.0251 15.426 62.8301 15.7357 63.4081 16.3446C63.9861 16.9536 64.2751 17.7792 64.2751 18.8114C64.2751 19.8744 63.9655 20.7208 63.3565 21.3504C62.7476 21.98 61.9116 22.2896 60.8588 22.2896C59.8473 22.2896 59.032 21.9903 58.4437 21.3916C57.8347 20.8033 57.5354 19.988 57.5354 18.9559ZM59.1455 18.9043C59.1455 19.5854 59.3003 20.1118 59.6099 20.4731C59.9196 20.8343 60.3634 21.0098 60.9414 21.0098C61.4987 21.0098 61.9322 20.8343 62.2212 20.4731C62.5102 20.1118 62.665 19.5751 62.665 18.863C62.665 18.1611 62.5102 17.6244 62.2109 17.2632C61.9116 16.9019 61.4781 16.7265 60.9311 16.7265C60.3634 16.7265 59.9299 16.9123 59.6099 17.2942C59.3003 17.676 59.1455 18.2024 59.1455 18.9043Z" fill="white"/>
<path d="M66.5664 17.3048C66.5664 17.5215 66.6387 17.697 66.7729 17.8208C66.9174 17.9447 67.227 18.0995 67.7018 18.2956C68.321 18.5433 68.7545 18.822 69.0022 19.1316C69.2499 19.4413 69.3738 19.8128 69.3738 20.2463C69.3738 20.8656 69.1364 21.361 68.6616 21.7326C68.1869 22.1041 67.5469 22.2899 66.7419 22.2899C66.4735 22.2899 66.1742 22.2589 65.844 22.1867C65.5137 22.1248 65.235 22.0319 65.0079 21.939V20.4218C65.2866 20.6179 65.5859 20.7727 65.9162 20.8862C66.2361 20.9998 66.5355 21.0617 66.7935 21.0617C67.1444 21.0617 67.4024 21.0101 67.5676 20.9172C67.7327 20.8243 67.8153 20.6592 67.8153 20.4218C67.8153 20.205 67.7327 20.0296 67.5573 19.8851C67.3818 19.7406 67.0618 19.5651 66.5768 19.3793C66.0091 19.142 65.6066 18.8736 65.3692 18.5743C65.1318 18.275 65.0079 17.8931 65.0079 17.439C65.0079 16.8507 65.2453 16.3656 65.7098 15.9837C66.1742 15.6018 66.7832 15.416 67.5366 15.416C67.7637 15.416 68.0217 15.4367 68.3107 15.4883C68.5997 15.5399 68.8371 15.6018 69.0229 15.6844V17.15C68.8164 17.0158 68.5791 16.9023 68.3107 16.7991C68.0424 16.7062 67.7637 16.6546 67.5057 16.6546C67.2167 16.6546 66.9793 16.7165 66.8245 16.83C66.649 16.9435 66.5664 17.1087 66.5664 17.3048Z" fill="white"/>
<path d="M70.0549 18.9559C70.0549 17.8721 70.3646 17.0155 70.9735 16.3756C71.5825 15.746 72.4391 15.426 73.5228 15.426C74.5446 15.426 75.3497 15.7357 75.9277 16.3446C76.5056 16.9536 76.7946 17.7792 76.7946 18.8114C76.7946 19.8744 76.485 20.7208 75.8761 21.3504C75.2671 21.98 74.4311 22.2896 73.3783 22.2896C72.3669 22.2896 71.5515 21.9903 70.9632 21.3916C70.3542 20.8033 70.0549 19.988 70.0549 18.9559ZM71.6547 18.9043C71.6547 19.5854 71.8095 20.1118 72.1192 20.4731C72.4288 20.8343 72.8726 21.0098 73.4506 21.0098C74.0079 21.0098 74.4414 20.8343 74.7304 20.4731C75.0194 20.1118 75.1742 19.5751 75.1742 18.863C75.1742 18.1611 75.0194 17.6244 74.7201 17.2632C74.4208 16.9019 73.9873 16.7265 73.4403 16.7265C72.8726 16.7265 72.4391 16.9123 72.1192 17.2942C71.8095 17.676 71.6547 18.2024 71.6547 18.9043Z" fill="white"/>
<path d="M81.883 16.8505V20.2152C81.883 20.917 82.0481 21.4331 82.3681 21.784C82.688 22.1349 83.1834 22.3001 83.8337 22.3001C84.0504 22.3001 84.2775 22.2794 84.5045 22.2278C84.7316 22.1762 84.8968 22.1349 84.9896 22.073V20.7932C84.8968 20.8551 84.7832 20.9067 84.6594 20.948C84.5355 20.9893 84.422 21.0099 84.3394 21.0099C84.0298 21.0099 83.7924 20.9273 83.6479 20.7622C83.5034 20.5971 83.4311 20.3081 83.4311 19.9056V16.8402H85V15.581H83.4415V13.6406L81.8933 14.1154V15.5913H79.5917V14.7966C79.5917 14.4044 79.6742 14.1051 79.8497 13.8986C80.0252 13.6922 80.2729 13.5993 80.5928 13.5993C80.758 13.5993 80.9025 13.62 81.0366 13.6613C81.1605 13.7025 81.2534 13.7438 81.305 13.7748V12.4434C81.1915 12.4021 81.0676 12.3814 80.9231 12.3608C80.7786 12.3402 80.6135 12.3298 80.4277 12.3298C79.7259 12.3298 79.1479 12.5466 78.7041 12.9904C78.2603 13.4342 78.0332 13.9915 78.0332 14.6831V15.5913H76.9391V16.8505H78.0332V22.1452H79.5917V16.8505H81.883Z" fill="white"/>
<path d="M43.2509 12.9902V22.1348H41.6614V14.9719H41.6408L38.8025 22.1348H37.7497L34.8391 14.9719H34.8185V22.1348H33.3529V12.9902H35.6236L38.2555 19.7712H38.2967L41.0731 12.9902H43.2509Z" fill="white"/>
<path d="M37.5227 9.03724C36.9757 9.34688 36.3564 9.50169 35.6649 9.50169C35.1385 9.50169 34.674 9.38816 34.2612 9.15077C33.8587 8.92371 33.5387 8.59343 33.322 8.17026C33.1052 7.7471 32.9917 7.27232 32.9917 6.74595C32.9917 6.1886 33.1156 5.68287 33.3529 5.24938C33.5903 4.81589 33.9309 4.46497 34.3747 4.21726C34.8185 3.96956 35.314 3.8457 35.8713 3.8457C36.15 3.8457 36.4286 3.87667 36.7073 3.92827C36.986 3.97988 37.213 4.05213 37.3885 4.1347V4.96039C36.9757 4.68172 36.4493 4.54754 35.8094 4.54754C35.4275 4.54754 35.0869 4.64043 34.7773 4.82621C34.4676 5.01199 34.2302 5.27002 34.0651 5.58998C33.9 5.92025 33.8174 6.29182 33.8174 6.70466C33.8174 7.35489 33.9929 7.87095 34.3334 8.25283C34.674 8.63472 35.1488 8.8205 35.7474 8.8205C36.1293 8.8205 36.4699 8.74825 36.7589 8.59343V7.17943H35.5926V6.49824H37.5227V9.03724Z" fill="white"/>
<path d="M41.9711 7.66456H39.2669C39.2773 8.05676 39.4011 8.35608 39.6075 8.57282C39.8243 8.77924 40.103 8.89278 40.4539 8.89278C40.9183 8.89278 41.3209 8.7586 41.6718 8.49025V9.15081C41.517 9.25402 41.3209 9.34691 41.0835 9.40883C40.8461 9.47076 40.5984 9.50173 40.3507 9.50173C39.7624 9.50173 39.2979 9.32627 38.978 8.97535C38.658 8.62443 38.4929 8.12901 38.4929 7.4891C38.4929 7.0969 38.5754 6.73566 38.7302 6.42602C38.8851 6.10607 39.1121 5.85836 39.3908 5.6829C39.6695 5.50744 39.9894 5.41455 40.33 5.41455C40.8358 5.41455 41.2383 5.57969 41.5273 5.90997C41.8163 6.24024 41.9608 6.69437 41.9608 7.28268V7.66456H41.9711ZM41.2176 7.07626C41.2176 6.73566 41.1351 6.47763 40.9803 6.30217C40.8254 6.12671 40.6087 6.03382 40.3197 6.03382C40.0617 6.03382 39.8346 6.12671 39.6385 6.31249C39.4424 6.49827 39.3289 6.7563 39.2669 7.07626H41.2176Z" fill="white"/>
<path d="M44.9023 9.36771C44.8301 9.40899 44.7372 9.43996 44.603 9.4606C44.4791 9.48124 44.3656 9.49156 44.2624 9.49156C43.5399 9.49156 43.1787 9.08904 43.1787 8.29431V6.12687H42.5181V5.5076H43.1787V4.57869L43.9321 4.34131V5.49728H44.892V6.11655H43.9321V8.16013C43.9321 8.41816 43.9734 8.60394 44.056 8.70715C44.1385 8.81037 44.283 8.86197 44.4998 8.86197C44.6443 8.86197 44.7785 8.82069 44.892 8.73812V9.36771H44.9023Z" fill="white"/>
<path d="M48.6386 4.12443C48.6386 4.24829 48.5973 4.3515 48.5044 4.44439C48.4115 4.53728 48.298 4.57856 48.1638 4.57856C48.0296 4.57856 47.9161 4.53728 47.8232 4.44439C47.7303 4.36182 47.689 4.24828 47.689 4.11411C47.689 3.97993 47.7406 3.8664 47.8335 3.78383C47.9264 3.70126 48.0399 3.64966 48.1638 3.64966C48.2877 3.64966 48.4012 3.69094 48.4941 3.78383C48.5973 3.88704 48.6386 3.99026 48.6386 4.12443ZM48.5354 9.40886H47.7819V5.50746H48.5354V9.40886Z" fill="white"/>
<path d="M51.8072 9.36771C51.7349 9.40899 51.642 9.43996 51.5078 9.4606C51.384 9.48124 51.2705 9.49156 51.1672 9.49156C50.4448 9.49156 50.0835 9.08904 50.0835 8.29431V6.12687H49.423V5.5076H50.0835V4.57869L50.837 4.34131V5.49728H51.7968V6.11655H50.837V8.16013C50.837 8.41816 50.8783 8.60394 50.9608 8.70715C51.0434 8.81037 51.1879 8.86197 51.4046 8.86197C51.5491 8.86197 51.6833 8.82069 51.7968 8.73812V9.36771H51.8072Z" fill="white"/>
<path d="M56.7407 4.26887C56.6168 4.20694 56.4826 4.16566 56.3278 4.16566C55.9047 4.16566 55.6982 4.42368 55.6982 4.93974V5.49708H56.5859V6.11635H55.6982V9.39848H54.9448V6.12667H54.2842V5.5074H54.9448V4.90878C54.9448 4.49593 55.0583 4.16566 55.2957 3.91795C55.5331 3.67024 55.8531 3.54639 56.2659 3.54639C56.4723 3.54639 56.6271 3.56703 56.751 3.61864V4.26887H56.7407Z" fill="white"/>
<path d="M59.5171 6.26099C59.4758 6.23003 59.3932 6.19907 59.29 6.1681C59.1868 6.14746 59.0939 6.12682 59.0217 6.12682C58.7533 6.12682 58.5366 6.25067 58.3715 6.48806C58.2063 6.72545 58.1237 7.03508 58.1237 7.41696V9.40894H57.3703V5.50755H58.1237V6.29196H58.1444C58.227 6.02361 58.3611 5.81718 58.5366 5.66237C58.712 5.50755 58.9185 5.4353 59.1455 5.4353C59.3004 5.4353 59.4242 5.45595 59.5068 5.48691V6.26099H59.5171Z" fill="white"/>
<path d="M63.821 7.4375C63.821 8.06709 63.6352 8.57282 63.2739 8.94438C62.9127 9.31594 62.4276 9.50173 61.829 9.50173C61.2407 9.50173 60.7659 9.31594 60.415 8.9547C60.0641 8.59346 59.8886 8.10837 59.8886 7.49942C59.8886 6.84919 60.0744 6.34345 60.4356 5.97189C60.7969 5.60033 61.2923 5.41455 61.9219 5.41455C62.5102 5.41455 62.9746 5.59001 63.3049 5.95125C63.6558 6.31249 63.821 6.80791 63.821 7.4375ZM63.0469 7.45814C63.0469 6.99369 62.9437 6.64277 62.7476 6.40538C62.5411 6.16799 62.2625 6.04414 61.8909 6.04414C61.5193 6.04414 61.22 6.16799 61.0033 6.42602C60.7865 6.67373 60.6833 7.03497 60.6833 7.4891C60.6833 7.93291 60.7865 8.27351 61.0033 8.52122C61.22 8.76892 61.509 8.89278 61.8909 8.89278C62.2728 8.89278 62.5618 8.76892 62.7579 8.53154C62.9437 8.27351 63.0469 7.92259 63.0469 7.45814Z" fill="white"/>
<path d="M70.5607 9.4089H69.8073V7.18986C69.8073 6.78733 69.7454 6.49834 69.6215 6.31256C69.4977 6.12678 69.2809 6.04421 68.9816 6.04421C68.7339 6.04421 68.5171 6.15774 68.352 6.38481C68.1765 6.61187 68.094 6.89054 68.094 7.20018V9.4089H67.3405V7.11761C67.3405 6.40545 67.0619 6.04421 66.5148 6.04421C66.2568 6.04421 66.0401 6.15774 65.8749 6.37448C65.7098 6.59123 65.6272 6.8699 65.6272 7.2105V9.41922H64.8738V5.50751H65.6272V6.11646H65.6375C65.9162 5.64168 66.3291 5.41462 66.8554 5.41462C67.1031 5.41462 67.3302 5.48687 67.5366 5.62104C67.7327 5.75522 67.8772 5.95132 67.9701 6.19903C68.1249 5.93068 68.3004 5.73457 68.5171 5.6004C68.7339 5.47655 68.9816 5.4043 69.2706 5.4043C70.1272 5.4043 70.5504 5.93068 70.5504 6.99375V9.4089H70.5607Z" fill="white"/>
<path d="M90.517 0.000488281H3.48341C1.56863 0.000488281 0.00201416 1.46298 0.00201416 3.25049V22.7505C0.00201416 24.538 1.56863 26.0005 3.48341 26.0005H90.517C92.4317 26.0005 93.9984 24.538 93.9984 22.7505V3.25049C93.9984 1.46298 92.4317 0.000488281 90.517 0.000488281ZM90.517 0.520225C92.1295 0.520225 93.4414 1.7451 93.4414 3.25049V22.7505C93.4414 24.2559 92.1296 25.4808 90.517 25.4808H3.48341C1.87084 25.4808 0.55933 24.2559 0.55933 22.7505V3.25049C0.55933 1.7451 1.87084 0.520225 3.48341 0.520225H90.517Z" fill="#A2A2A1"/>
</g>
<defs>
<clipPath id="clip0_82_4">
<rect width="94" height="26.0005" fill="white"/>
</clipPath>
</defs>
</svg>
