<svg width="16" height="16" viewBox="0 0 16 16" fill="none" xmlns="http://www.w3.org/2000/svg">
<g clip-path="url(#clip0_1_242)">
<path d="M15.9843 4.70417C15.9468 3.85402 15.8094 3.26956 15.6124 2.76311C15.4092 2.22553 15.0967 1.74424 14.6872 1.34413C14.2871 0.937805 13.8026 0.62207 13.2713 0.42208C12.7619 0.225142 12.1805 0.0876636 11.3303 0.0501807C10.4738 0.00952331 10.2019 0.00012207 8.02964 0.00012207C5.85734 0.00012207 5.58543 0.00952331 4.73212 0.0470062C3.88198 0.0844891 3.29751 0.222089 2.79119 0.418905C2.25349 0.62207 1.77219 0.934631 1.37209 1.34413C0.965759 1.74424 0.650146 2.22871 0.450033 2.76006C0.253096 3.26956 0.115618 3.85085 0.0781347 4.70099C0.0374774 5.55748 0.0280762 5.82939 0.0280762 8.00169C0.0280762 10.174 0.0374774 10.4459 0.0749603 11.2992C0.112443 12.1493 0.250043 12.7338 0.446981 13.2403C0.650146 13.7778 0.965759 14.2591 1.37209 14.6592C1.77219 15.0656 2.25666 15.3813 2.78801 15.5813C3.29751 15.7782 3.8788 15.9157 4.72907 15.9532C5.58226 15.9908 5.85429 16.0001 8.02658 16.0001C10.1989 16.0001 10.4708 15.9908 11.3241 15.9532C12.1742 15.9157 12.7587 15.7782 13.265 15.5813C14.3403 15.1656 15.1905 14.3154 15.6062 13.2403C15.803 12.7308 15.9406 12.1493 15.9781 11.2992C16.0156 10.4459 16.025 10.174 16.025 8.00169C16.025 5.82939 16.0218 5.55748 15.9843 4.70417ZM14.5435 11.2367C14.509 12.0181 14.3778 12.4401 14.2684 12.7214C13.9996 13.4184 13.4463 13.9716 12.7493 14.2405C12.468 14.3498 12.043 14.4811 11.2646 14.5154C10.4207 14.553 10.1676 14.5623 8.03281 14.5623C5.89799 14.5623 5.64172 14.553 4.80086 14.5154C4.01945 14.4811 3.5975 14.3498 3.31619 14.2405C2.96932 14.1123 2.65359 13.9091 2.39731 13.6434C2.13164 13.384 1.92847 13.0714 1.80027 12.7245C1.69088 12.4432 1.55962 12.0181 1.52532 11.2399C1.48771 10.396 1.47843 10.1427 1.47843 8.00791C1.47843 5.8731 1.48771 5.61682 1.52532 4.77608C1.55962 3.99468 1.69088 3.57272 1.80027 3.29141C1.92847 2.94442 2.13164 2.62881 2.40049 2.37241C2.65981 2.10673 2.97238 1.90357 3.31937 1.77549C3.60067 1.6661 4.0258 1.53485 4.80403 1.50042C5.64795 1.46293 5.90117 1.45353 8.03586 1.45353C10.1739 1.45353 10.427 1.46293 11.2678 1.50042C12.0492 1.53485 12.4712 1.6661 12.7525 1.77549C13.0994 1.90357 13.4151 2.10673 13.6714 2.37241C13.937 2.63186 14.1402 2.94442 14.2684 3.29141C14.3778 3.57272 14.509 3.99773 14.5435 4.77608C14.581 5.61999 14.5904 5.8731 14.5904 8.00791C14.5904 10.1427 14.581 10.3928 14.5435 11.2367Z" fill="white"/>
<path d="M8.02961 3.8916C5.76049 3.8916 3.91943 5.73254 3.91943 8.00178C3.91943 10.271 5.76049 12.112 8.02961 12.112C10.2988 12.112 12.1398 10.271 12.1398 8.00178C12.1398 5.73254 10.2988 3.8916 8.02961 3.8916ZM8.02961 10.6679C6.55752 10.6679 5.36344 9.47399 5.36344 8.00178C5.36344 6.52957 6.55752 5.33561 8.02961 5.33561C9.50182 5.33561 10.6958 6.52957 10.6958 8.00178C10.6958 9.47399 9.50182 10.6679 8.02961 10.6679Z" fill="white"/>
<path d="M13.262 3.72895C13.262 4.25884 12.8323 4.68849 12.3023 4.68849C11.7724 4.68849 11.3428 4.25884 11.3428 3.72895C11.3428 3.19894 11.7724 2.76941 12.3023 2.76941C12.8323 2.76941 13.262 3.19894 13.262 3.72895Z" fill="white"/>
</g>
<defs>
<clipPath id="clip0_1_242">
<rect width="16" height="16" fill="white"/>
</clipPath>
</defs>
</svg>
