<svg width="94" height="26" viewBox="0 0 94 26" fill="none" xmlns="http://www.w3.org/2000/svg">
<g clip-path="url(#clip0_82_81)">
<path d="M90.6557 26H3.29279C1.47754 26 0 24.6168 0 22.9235V3.0719C0 1.378 1.47754 0 3.29279 0H90.6557C92.4702 0 94 1.378 94 3.0719V22.9235C94 24.6168 92.4702 26 90.6557 26Z" fill="#A6A6A6"/>
<path d="M93.326 23.0946C93.326 24.4791 92.1325 25.6006 90.6564 25.6006H3.29277C1.81732 25.6006 0.61969 24.4791 0.61969 23.0946V3.10988C0.61969 1.726 1.81732 0.600586 3.29277 0.600586H90.6557C92.1325 0.600586 93.3253 1.726 93.3253 3.10988L93.326 23.0946Z" fill="black"/>
<path d="M20.978 12.3542C20.9578 10.1787 22.8156 9.12026 22.9005 9.07099C21.8484 7.58396 20.2177 7.38079 19.6446 7.36459C18.275 7.22486 16.9465 8.15906 16.2488 8.15906C15.5372 8.15906 14.4628 7.37809 13.3049 7.40104C11.8148 7.42331 10.4208 8.25964 9.65626 9.55834C8.07846 12.2064 9.2552 16.0977 10.7669 18.2382C11.523 19.2864 12.4066 20.4569 13.5632 20.4157C14.6947 20.3705 15.1173 19.7164 16.4828 19.7164C17.8357 19.7164 18.2325 20.4157 19.4121 20.3894C20.6264 20.3705 21.3909 19.3364 22.1207 18.2787C22.9945 17.0772 23.3454 15.8939 23.3594 15.8331C23.3308 15.8237 21.001 14.9617 20.978 12.3542Z" fill="white"/>
<path d="M18.7499 5.95661C19.3585 5.21883 19.7748 4.21511 19.6593 3.19653C18.7784 3.23433 17.6769 3.78716 17.0426 4.50873C16.4814 5.14458 15.98 6.18678 16.1095 7.16688C17.099 7.23843 18.1149 6.68291 18.7499 5.95661Z" fill="white"/>
<path d="M37.3528 20.2654H35.7715L34.9053 17.6268H31.8945L31.0694 20.2654H29.5299L32.5128 11.2825H34.3552L37.3528 20.2654ZM34.6442 16.5198L33.8609 14.1742C33.778 13.9345 33.6227 13.3702 33.3937 12.4819H33.3658C33.2746 12.864 33.1277 13.4283 32.9257 14.1742L32.1563 16.5198H34.6442Z" fill="white"/>
<path d="M45.0239 16.947C45.0239 18.0486 44.7168 18.9194 44.1027 19.5586C43.5526 20.1276 42.8695 20.4118 42.0542 20.4118C41.1741 20.4118 40.5418 20.1053 40.1568 19.4924H40.1289V22.9046H38.6444V15.9203C38.6444 15.2278 38.6256 14.517 38.5894 13.788H39.895L39.9778 14.8147H40.0057C40.5008 14.0411 41.2521 13.655 42.2603 13.655C43.0485 13.655 43.7065 13.9568 44.2329 14.5609C44.7607 15.1657 45.0239 15.9608 45.0239 16.947ZM43.5115 16.9997C43.5115 16.3692 43.3653 15.8495 43.0715 15.4404C42.7505 15.0138 42.3195 14.8005 41.7791 14.8005C41.4129 14.8005 41.0801 14.9193 40.7827 15.1535C40.4847 15.3898 40.2898 15.6983 40.1986 16.0803C40.1526 16.2585 40.1296 16.4043 40.1296 16.5191V17.5991C40.1296 18.0702 40.2786 18.4678 40.5766 18.7925C40.8747 19.1171 41.2618 19.2791 41.7381 19.2791C42.2972 19.2791 42.7324 19.0699 43.0436 18.6527C43.3556 18.2349 43.5115 17.6841 43.5115 16.9997Z" fill="white"/>
<path d="M52.7089 16.947C52.7089 18.0486 52.4019 18.9194 51.787 19.5586C51.2377 20.1276 50.5546 20.4118 49.7392 20.4118C48.8591 20.4118 48.2269 20.1053 47.8425 19.4924H47.8147V22.9046H46.3302V15.9203C46.3302 15.2278 46.3114 14.517 46.2751 13.788H47.5807L47.6636 14.8147H47.6914C48.1858 14.0411 48.9371 13.655 49.946 13.655C50.7335 13.655 51.3915 13.9568 51.9193 14.5609C52.445 15.1657 52.7089 15.9608 52.7089 16.947ZM51.1966 16.9997C51.1966 16.3692 51.0496 15.8495 50.7558 15.4404C50.4348 15.0138 50.0052 14.8005 49.4642 14.8005C49.0972 14.8005 48.7651 14.9193 48.4671 15.1535C48.1691 15.3898 47.9748 15.6983 47.8836 16.0803C47.8383 16.2585 47.8147 16.4043 47.8147 16.5191V17.5991C47.8147 18.0702 47.9637 18.4678 48.2603 18.7925C48.5583 19.1165 48.9454 19.2791 49.4231 19.2791C49.9822 19.2791 50.4174 19.0699 50.7287 18.6527C51.0406 18.2349 51.1966 17.6841 51.1966 16.9997Z" fill="white"/>
<path d="M61.3012 17.7461C61.3012 18.5102 61.0275 19.1318 60.4782 19.6118C59.8745 20.1362 59.034 20.3981 57.9541 20.3981C56.957 20.3981 56.1576 20.2118 55.5526 19.8386L55.8965 18.6391C56.5483 19.0211 57.2634 19.2128 58.0425 19.2128C58.6016 19.2128 59.0368 19.09 59.3495 18.8456C59.6607 18.6013 59.816 18.2732 59.816 17.8642C59.816 17.4997 59.6879 17.1926 59.4309 16.9435C59.1754 16.6944 58.7486 16.4629 58.1525 16.2489C56.5302 15.6623 55.7197 14.8031 55.7197 13.6731C55.7197 12.9347 56.0038 12.3292 56.5726 11.858C57.1394 11.3862 57.8956 11.1506 58.8412 11.1506C59.6844 11.1506 60.3849 11.2931 60.944 11.5772L60.5728 12.7504C60.0506 12.475 59.4602 12.3373 58.7994 12.3373C58.2772 12.3373 57.8691 12.4622 57.5767 12.7106C57.3295 12.9326 57.2056 13.2033 57.2056 13.5239C57.2056 13.879 57.3469 14.1726 57.631 14.4035C57.8782 14.6168 58.3273 14.8476 58.979 15.0967C59.7763 15.4079 60.3619 15.7717 60.7386 16.1888C61.1139 16.6046 61.3012 17.1251 61.3012 17.7461Z" fill="white"/>
<path d="M66.2094 14.868H64.5731V18.0128C64.5731 18.8127 64.8614 19.2123 65.4393 19.2123C65.7046 19.2123 65.9246 19.19 66.0987 19.1455L66.1398 20.2383C65.8473 20.3443 65.4623 20.3976 64.9853 20.3976C64.399 20.3976 63.9409 20.2241 63.6101 19.8778C63.2808 19.5309 63.1151 18.949 63.1151 18.1316V14.8666H62.1403V13.7866H63.1151V12.6007L64.5731 12.1741V13.7866H66.2094V14.868Z" fill="white"/>
<path d="M73.5922 16.9731C73.5922 17.9688 73.2984 18.7862 72.7121 19.4254C72.0973 20.0835 71.2812 20.4116 70.2639 20.4116C69.2835 20.4116 68.503 20.0964 67.9209 19.4659C67.3388 18.8355 67.0477 18.0396 67.0477 17.0805C67.0477 16.0767 67.3471 15.2546 67.948 14.6154C68.5476 13.9755 69.3566 13.6555 70.3739 13.6555C71.3543 13.6555 72.1432 13.9707 72.7386 14.6019C73.3081 15.2141 73.5922 16.0045 73.5922 16.9731ZM72.052 17.0197C72.052 16.4223 71.9204 15.91 71.6537 15.4827C71.3425 14.9657 70.8975 14.7078 70.321 14.7078C69.7243 14.7078 69.271 14.9664 68.9598 15.4827C68.6931 15.9107 68.5615 16.4311 68.5615 17.0467C68.5615 17.6441 68.6931 18.1564 68.9598 18.583C69.2808 19.1001 69.7292 19.3579 70.3078 19.3579C70.8746 19.3579 71.3195 19.0947 71.6405 18.5695C71.9141 18.1341 72.052 17.6164 72.052 17.0197Z" fill="white"/>
<path d="M78.4176 15.0536C78.2706 15.0273 78.114 15.0138 77.9496 15.0138C77.4274 15.0138 77.0236 15.2048 76.7395 15.5876C76.4923 15.9251 76.3684 16.3517 76.3684 16.8667V20.2653H74.8845L74.8985 15.8279C74.8985 15.0813 74.8797 14.4016 74.8428 13.7887H76.1358L76.1901 15.028H76.2312C76.3879 14.6021 76.635 14.2592 76.9734 14.002C77.3042 13.7705 77.6614 13.655 78.0464 13.655C78.1836 13.655 78.3075 13.6645 78.4176 13.6814V15.0536Z" fill="white"/>
<path d="M85.0568 16.7201C85.0568 16.978 85.0394 17.1953 85.0025 17.3729H80.549C80.5664 18.0128 80.7815 18.5021 81.1951 18.8396C81.5704 19.1414 82.0558 19.2926 82.6518 19.2926C83.3112 19.2926 83.9128 19.1906 84.4538 18.9861L84.6864 19.9851C84.0541 20.2524 83.3077 20.3854 82.4464 20.3854C81.4103 20.3854 80.597 20.0897 80.0052 19.4991C79.4147 18.9085 79.1188 18.1154 79.1188 17.1204C79.1188 16.1437 79.3938 15.3303 79.9446 14.6816C80.5211 13.9891 81.3003 13.6428 82.2807 13.6428C83.2436 13.6428 83.9727 13.9891 84.4677 14.6816C84.8597 15.2318 85.0568 15.9122 85.0568 16.7201ZM83.6412 16.3469C83.651 15.9203 83.5542 15.5517 83.353 15.2405C83.096 14.8403 82.7012 14.6405 82.1699 14.6405C81.6846 14.6405 81.2898 14.8355 80.9883 15.227C80.7411 15.5382 80.5942 15.9115 80.549 16.3462L83.6412 16.3469Z" fill="white"/>
<path d="M34.1533 5.75612C34.1533 6.55059 33.9075 7.14864 33.4167 7.55027C32.962 7.92084 32.3158 8.10647 31.4789 8.10647C31.0639 8.10647 30.7088 8.08892 30.4114 8.05382V3.71289C30.7993 3.65214 31.2171 3.62109 31.6683 3.62109C32.4655 3.62109 33.0664 3.78917 33.4717 4.12532C33.9256 4.50534 34.1533 5.04872 34.1533 5.75612ZM33.3839 5.77569C33.3839 5.26067 33.2433 4.86579 32.962 4.59039C32.6807 4.31567 32.2699 4.17797 31.7288 4.17797C31.4991 4.17797 31.3034 4.19282 31.1412 4.22387V7.52394C31.231 7.53744 31.3953 7.54352 31.6341 7.54352C32.1926 7.54352 32.6236 7.39299 32.9272 7.09194C33.2307 6.79089 33.3839 6.35214 33.3839 5.77569Z" fill="white"/>
<path d="M38.233 6.44976C38.233 6.93914 38.0889 7.34009 37.8006 7.65464C37.4984 7.97796 37.098 8.13929 36.5981 8.13929C36.1162 8.13929 35.7326 7.98471 35.4464 7.67421C35.1609 7.36439 35.0182 6.97356 35.0182 6.50241C35.0182 6.00966 35.1651 5.60534 35.4603 5.29146C35.7556 4.97759 36.1525 4.82031 36.6524 4.82031C37.1342 4.82031 37.5214 4.97489 37.8145 5.28471C38.093 5.58576 38.233 5.97456 38.233 6.44976ZM37.4761 6.47271C37.4761 6.17909 37.4107 5.92731 37.2805 5.71739C37.1273 5.46359 36.9093 5.33669 36.6259 5.33669C36.3328 5.33669 36.11 5.46359 35.9568 5.71739C35.8259 5.92731 35.7611 6.18314 35.7611 6.48554C35.7611 6.77916 35.8266 7.03094 35.9568 7.24086C36.1149 7.49466 36.3349 7.62156 36.619 7.62156C36.8975 7.62156 37.1161 7.49264 37.2735 7.23411C37.4086 7.02014 37.4761 6.76634 37.4761 6.47271Z" fill="white"/>
<path d="M43.7031 4.88525L42.6761 8.0672H42.0076L41.5822 6.68548C41.4742 6.34055 41.3865 5.99765 41.3183 5.65745H41.305C41.2417 6.0071 41.154 6.34933 41.0412 6.68548L40.5893 8.0672H39.9131L38.9474 4.88525H39.6973L40.0684 6.39793C40.1582 6.75568 40.2321 7.09655 40.2912 7.4192H40.3045C40.3588 7.15325 40.4486 6.8144 40.5753 6.40468L41.0412 4.88593H41.6358L42.0821 6.37228C42.19 6.73475 42.2778 7.08373 42.3453 7.41988H42.3655C42.4149 7.0925 42.4894 6.74353 42.5883 6.37228L42.9866 4.88593H43.7031V4.88525Z" fill="white"/>
<path d="M47.486 8.06713H46.7563V6.24463C46.7563 5.68303 46.5363 5.40223 46.0948 5.40223C45.8783 5.40223 45.7035 5.47918 45.5677 5.63376C45.4334 5.78833 45.3651 5.97058 45.3651 6.17916V8.06646H44.6354V5.79441C44.6354 5.51496 44.6264 5.21188 44.6089 4.88383H45.2502L45.2844 5.38131H45.3045C45.3895 5.22673 45.5162 5.09916 45.6826 4.99723C45.8804 4.87843 46.1018 4.81836 46.3441 4.81836C46.6505 4.81836 46.9053 4.91421 47.108 5.10658C47.36 5.34216 47.486 5.69383 47.486 6.16093V8.06713Z" fill="white"/>
<path d="M49.4983 8.06727H48.7693V3.42529H49.4983V8.06727Z" fill="white"/>
<path d="M53.7945 6.44976C53.7945 6.93914 53.6504 7.34009 53.3621 7.65464C53.0599 7.97796 52.6589 8.13929 52.1596 8.13929C51.6771 8.13929 51.2934 7.98471 51.0079 7.67421C50.7225 7.36439 50.5797 6.97356 50.5797 6.50241C50.5797 6.00966 50.7266 5.60534 51.0219 5.29146C51.3171 4.97759 51.714 4.82031 52.2132 4.82031C52.6958 4.82031 53.0822 4.97489 53.376 5.28471C53.6546 5.58576 53.7945 5.97456 53.7945 6.44976ZM53.0369 6.47271C53.0369 6.17909 52.9715 5.92731 52.8413 5.71739C52.6888 5.46359 52.4702 5.33669 52.1875 5.33669C51.8936 5.33669 51.6708 5.46359 51.5183 5.71739C51.3874 5.92731 51.3227 6.18314 51.3227 6.48554C51.3227 6.77916 51.3881 7.03094 51.5183 7.24086C51.6764 7.49466 51.8964 7.62156 52.1805 7.62156C52.459 7.62156 52.677 7.49264 52.8343 7.23411C52.9701 7.02014 53.0369 6.76634 53.0369 6.47271Z" fill="white"/>
<path d="M57.3261 8.06706H56.6709L56.6165 7.70054H56.5964C56.3721 7.99281 56.0525 8.13929 55.6376 8.13929C55.3277 8.13929 55.077 8.04276 54.8883 7.85106C54.7171 7.67691 54.6314 7.46024 54.6314 7.20306C54.6314 6.81426 54.7985 6.51794 55.1348 6.31274C55.4704 6.10754 55.9425 6.00696 56.5504 6.01169V5.95229C56.5504 5.53311 56.3234 5.32386 55.8687 5.32386C55.5449 5.32386 55.2595 5.40284 55.013 5.55944L54.8647 5.09504C55.1696 4.91211 55.5463 4.82031 55.9906 4.82031C56.8484 4.82031 57.2787 5.25906 57.2787 6.13656V7.30836C57.2787 7.62629 57.2947 7.87941 57.3261 8.06706ZM56.5685 6.97356V6.48284C55.7636 6.46934 55.3611 6.68331 55.3611 7.12409C55.3611 7.29014 55.4071 7.41434 55.5011 7.49736C55.5951 7.58039 55.7148 7.62156 55.8576 7.62156C56.0177 7.62156 56.1674 7.57229 56.3039 7.47441C56.4411 7.37586 56.5253 7.25099 56.5567 7.09776C56.5643 7.06334 56.5685 7.02149 56.5685 6.97356Z" fill="white"/>
<path d="M61.4726 8.06727H60.825L60.7909 7.55629H60.7707C60.5639 7.94509 60.2116 8.13949 59.7165 8.13949C59.321 8.13949 58.9917 7.98897 58.7305 7.68792C58.4694 7.38687 58.3392 6.99604 58.3392 6.51612C58.3392 6.00109 58.4806 5.58394 58.7647 5.26534C59.0397 4.96834 59.3767 4.81984 59.7778 4.81984C60.2185 4.81984 60.527 4.96362 60.7025 5.25184H60.7164V3.42529H61.4468V7.21002C61.4468 7.51984 61.4552 7.80537 61.4726 8.06727ZM60.7164 6.72537V6.19482C60.7164 6.10302 60.7094 6.02877 60.6962 5.97207C60.6551 5.80197 60.5667 5.65887 60.4323 5.54344C60.2965 5.42802 60.1329 5.36997 59.9442 5.36997C59.6719 5.36997 59.4589 5.47459 59.3022 5.68452C59.1469 5.89444 59.0683 6.16242 59.0683 6.48979C59.0683 6.80434 59.1428 7.05949 59.2925 7.25592C59.4505 7.46517 59.6636 7.56979 59.9303 7.56979C60.1698 7.56979 60.3613 7.48272 60.5068 7.30789C60.6475 7.14657 60.7164 6.95217 60.7164 6.72537Z" fill="white"/>
<path d="M67.7135 6.44976C67.7135 6.93914 67.5693 7.34009 67.2811 7.65464C66.9789 7.97796 66.5792 8.13929 66.0786 8.13929C65.5974 8.13929 65.2138 7.98471 64.9269 7.67421C64.6414 7.36439 64.4987 6.97356 64.4987 6.50241C64.4987 6.00966 64.6456 5.60534 64.9408 5.29146C65.236 4.97759 65.6329 4.82031 66.1336 4.82031C66.6147 4.82031 67.0025 4.97489 67.295 5.28471C67.5735 5.58576 67.7135 5.97456 67.7135 6.44976ZM66.9573 6.47271C66.9573 6.17909 66.8918 5.92731 66.7616 5.71739C66.6077 5.46359 66.3905 5.33669 66.1064 5.33669C65.814 5.33669 65.5911 5.46359 65.4373 5.71739C65.3064 5.92731 65.2416 6.18314 65.2416 6.48554C65.2416 6.77916 65.3071 7.03094 65.4373 7.24086C65.5953 7.49466 65.8154 7.62156 66.0994 7.62156C66.378 7.62156 66.5973 7.49264 66.7547 7.23411C66.889 7.02014 66.9573 6.76634 66.9573 6.47271Z" fill="white"/>
<path d="M71.6371 8.06713H70.9081V6.24463C70.9081 5.68303 70.688 5.40223 70.2459 5.40223C70.0293 5.40223 69.8546 5.47918 69.7195 5.63376C69.5844 5.78833 69.5169 5.97058 69.5169 6.17916V8.06646H68.7864V5.79441C68.7864 5.51496 68.7781 5.21188 68.7607 4.88383H69.4013L69.4354 5.38131H69.4556C69.5412 5.22673 69.668 5.09916 69.8337 4.99723C70.0321 4.87843 70.2528 4.81836 70.4959 4.81836C70.8015 4.81836 71.0564 4.91421 71.259 5.10658C71.5117 5.34216 71.6371 5.69383 71.6371 6.16093V8.06713Z" fill="white"/>
<path d="M76.548 5.4151H75.7445V6.96085C75.7445 7.3537 75.8872 7.55012 76.1699 7.55012C76.3008 7.55012 76.4095 7.53932 76.4951 7.51705L76.5139 8.05367C76.3698 8.10632 76.1804 8.13265 75.9471 8.13265C75.6588 8.13265 75.4346 8.0476 75.2724 7.8775C75.1095 7.7074 75.0287 7.4212 75.0287 7.01957V5.4151H74.549V4.88522H75.0287V4.30202L75.7438 4.09277V4.88455H76.5473L76.548 5.4151Z" fill="white"/>
<path d="M80.4111 8.06727H79.6806V6.25827C79.6806 5.68789 79.4606 5.40237 79.0199 5.40237C78.6815 5.40237 78.4503 5.56774 78.3236 5.89849C78.302 5.96802 78.2894 6.05307 78.2894 6.15297V8.06659H77.5604V3.42529H78.2894V5.34297H78.3034C78.5332 4.99399 78.8625 4.81984 79.2893 4.81984C79.5915 4.81984 79.8415 4.91569 80.0399 5.10807C80.2871 5.34769 80.4111 5.70409 80.4111 6.17524V8.06727Z" fill="white"/>
<path d="M84.396 6.32578C84.396 6.45268 84.3862 6.55933 84.3688 6.6464H82.1803C82.1901 6.96095 82.2945 7.20058 82.4972 7.36663C82.6824 7.51513 82.9212 7.58938 83.2137 7.58938C83.5374 7.58938 83.8327 7.53943 84.0986 7.43885L84.2128 7.93025C83.9016 8.0612 83.5353 8.12668 83.1113 8.12668C82.603 8.12668 82.2026 7.98155 81.913 7.6913C81.6219 7.40105 81.4778 7.01158 81.4778 6.52288C81.4778 6.04295 81.6122 5.64335 81.883 5.32475C82.1657 4.98455 82.548 4.81445 83.0305 4.81445C83.5026 4.81445 83.8612 4.98455 84.1035 5.32475C84.2992 5.59475 84.396 5.92888 84.396 6.32578ZM83.6997 6.14285C83.7052 5.93293 83.6572 5.75203 83.5583 5.59948C83.4316 5.40305 83.2387 5.3045 82.9776 5.3045C82.7395 5.3045 82.5452 5.40035 82.3969 5.59273C82.2757 5.74595 82.204 5.92888 82.1803 6.14285H83.6997Z" fill="white"/>
</g>
<defs>
<clipPath id="clip0_82_81">
<rect width="94" height="26" fill="white"/>
</clipPath>
</defs>
</svg>
