<svg width="14" height="14" viewBox="0 0 14 14" fill="none" xmlns="http://www.w3.org/2000/svg">
<g clip-path="url(#clip0_1_238)">
<path d="M12.6 0.00012207H1.4C0.63 0.00012207 0 0.630122 0 1.40012V12.6001C0 13.3701 0.63 14.0001 1.4 14.0001H12.6C13.37 14.0001 14 13.3701 14 12.6001V1.40012C14 0.630122 13.37 0.00012207 12.6 0.00012207ZM4.2 11.9001H2.1V5.60012H4.2V11.9001ZM3.15 4.41012C2.45 4.41012 1.89 3.85012 1.89 3.15012C1.89 2.45012 2.45 1.89012 3.15 1.89012C3.85 1.89012 4.41 2.45012 4.41 3.15012C4.41 3.85012 3.85 4.41012 3.15 4.41012ZM11.9 11.9001H9.8V8.19012C9.8 7.63015 9.31 7.14012 8.75 7.14012C8.19 7.14012 7.7 7.63015 7.7 8.19012V11.9001H5.6V5.60012H7.7V6.44012C8.05 5.88012 8.82 5.46012 9.45 5.46012C10.78 5.46012 11.9 6.58012 11.9 7.91012V11.9001Z" fill="white"/>
</g>
<defs>
<clipPath id="clip0_1_238">
<rect width="14" height="14" fill="white"/>
</clipPath>
</defs>
</svg>
